<?xml version="1.0" encoding="utf-8"?>
<!-- Generator: Adobe Illustrator 16.0.0, SVG Export Plug-In . SVG Version: 6.00 Build 0)  -->
<!DOCTYPE svg PUBLIC "-//W3C//DTD SVG 1.1//EN" "http://www.w3.org/Graphics/SVG/1.1/DTD/svg11.dtd">
<svg version="1.1" id="Layer_1" xmlns="http://www.w3.org/2000/svg" xmlns:xlink="http://www.w3.org/1999/xlink" x="0px" y="0px"
	 width="222.667px" height="195.333px" viewBox="4 3.5 222.667 195.333" enable-background="new 4 3.5 222.667 195.333"
	 xml:space="preserve">
<g id="Layer_2">
	<g id="Shield">
		<path fill="#C69C6D" d="M110.691,194.93c-11.898-6.515-25.841-19.141-36.631-33.211c-12.81-16.707-19.864-33.479-19.864-47.227
			c0-12.164,0.033-14.437,0.074-17.313c0.066-4.543,0.148-10.178,0.15-56.746h112.766c0.008,11.819,0.074,20.574,0.133,28.346
			c0.105,13.989,0.189,25.039-0.133,45.684c-0.221,14.172-7.578,31.254-20.715,48.101
			C135.697,176.379,122.083,188.68,110.691,194.93z"/>
		<path d="M165.189,42.433c0.013,10.826,0.076,19.029,0.131,26.36c0.105,13.976,0.189,25.016-0.133,45.637
			c-0.213,13.74-7.42,30.396-20.291,46.901c-10.154,13.021-23.36,25.073-34.208,31.306c-11.452-6.527-24.699-18.647-35.04-32.136
			c-12.543-16.358-19.451-32.698-19.451-46.009c0-12.148,0.033-14.415,0.074-17.285c0.065-4.482,0.146-10.035,0.15-54.774H165.189
			 M169.188,38.433c-31.146,0-74.124,0-116.765,0c0,78.942-0.226,44.591-0.226,76.06c0,31.468,34.573,70.144,58.495,82.706
			c22.138-11.626,57.983-49.893,58.496-82.706C169.701,81.678,169.188,73.108,169.188,38.433L169.188,38.433z"/>
		<path fill="#C69C6D" d="M167.188,40.433c0.008,11.819,0.074,20.573,0.133,28.345c0.106,13.99,0.19,25.039-0.133,45.685
			c-0.222,14.172-7.578,31.254-20.715,48.1c-5.566,7.139-12.033,14.027-18.699,19.927c-5.975,5.288-11.857,9.569-17.083,12.44
			c-11.898-6.514-25.841-19.14-36.63-33.211c-12.81-16.707-19.864-33.479-19.864-47.226c0-12.164,0.033-14.437,0.075-17.313
			c0.065-4.543,0.147-10.178,0.15-56.746L167.188,40.433 M169.188,38.433c-31.146,0-74.124,0-116.765,0
			c0,78.942-0.226,44.591-0.226,76.06c0,31.468,34.573,70.144,58.495,82.706c22.138-11.626,57.983-49.893,58.496-82.706
			C169.701,81.678,169.188,73.108,169.188,38.433L169.188,38.433z"/>
		<path fill="none" stroke="#000000" stroke-width="2" d="M52.197,114.493c0,31.468,34.573,70.144,58.495,82.706
			c22.138-11.626,57.983-49.893,58.496-82.706c0.514-32.814,0-41.385,0-76.06c-31.146,0-74.124,0-116.765,0
			C52.422,117.376,52.197,83.025,52.197,114.493z"/>
	</g>
	<path id="Neck" fill="#381D13" stroke="#000000" stroke-width="2" stroke-miterlimit="10" d="M146.852,54.864
		c0,0,6.362,95.312-36.045,95.169c-43.02-0.145-34.143-94.892-33.42-95.169"/>
	<g id="Monocle_line">
		<path fill="none" stroke="#000000" stroke-width="2" stroke-linecap="round" stroke-linejoin="round" stroke-dasharray="1,3" d="
			M138.964,94.607c1.175,2.318,2.589,6.259,0.083,8.426c-2.794,2.417-7.24,7.773-8.16,9.818"/>
	</g>
	<path id="Nose" fill="#2C170E" stroke="#000000" stroke-width="2" stroke-miterlimit="10" d="M126.348,150.033
		c0,0,3.801,13.533-1.933,16.534c-8.015,4.192-15.733,5.866-25.333,0c-5.159-3.152-4.2-7.733-2.067-16.267"/>
	<path id="Head" fill="#2C170E" stroke="#000000" stroke-width="2" stroke-miterlimit="10" d="M123.881,152.7
		c0,0,6.934-6.399,6.934-12.267s-4.405-8.459-3.185-12.307c2.911-9.162,7.451-18.271,7.451-32.528c0-0.885,0.599-1.163,0.674-2.477
		c0.06-1.057-0.473-1.964-0.407-2.424c1.041-7.268,11.479-16.873,8.534-31.6c-1.067-5.333-22.524-13.866-31.334-13.866
		c-8.399,0-29.467,9.6-30.533,13.867c-2.925,11.699,1.909,25.932,4.533,29.867c1.317,1.975-1.266,3,0.822,6.536
		c0,0,0.112,21.597,7.178,33.865c1.461,2.535-2.667,6.533-2,11.066s5.467,11.467,6.4,12.267"/>
	<path id="Nose_line_L" fill="none" stroke="#000000" stroke-width="2" stroke-miterlimit="10" d="M99.881,80.166
		c0,0,4.762,8.721-4.561,28.863c-2.671,5.771,4.178,13.701-0.617,23.02"/>
	<path id="Nose_line_R" fill="none" stroke="#000000" stroke-width="2" stroke-miterlimit="10" d="M123.547,80.166
		c0,0-5.399,10.567,3,28.367c2.714,5.75-3.469,13.797,1.326,23.115"/>
	<path id="Eyebrow_L" fill="none" stroke="#000000" stroke-width="2" d="M86.047,86.874c0,0,5.693-2.141,9.693,2.459"/>
	<path id="Eyebrow_R" fill="none" stroke="#000000" stroke-width="2" d="M136.541,86.874c0,0-5.693-2.141-9.693,2.459"/>
	<path id="Nostril_R" stroke="#000000" stroke-width="2" stroke-miterlimit="10" d="M125.755,165.501c0,0-9.376-5.468-11.002,4.396"
		/>
	<path id="Nostril_L" stroke="#000000" stroke-width="2" stroke-miterlimit="10" d="M97.553,165.46c0,0,8.143-5.427,9.769,4.438"/>
	<path id="Ear_R" stroke="#000000" stroke-width="2" stroke-miterlimit="10" d="M141.214,64.833
		c32.8-20.389,21.067-40.8,21.067-40.8s-22.936,2.133-32.76,29.067C128.104,56.99,137.698,67.019,141.214,64.833z"/>
	<path id="Ear_inside_R" fill="#321A0F" d="M135.081,47.551c5.067-19.251,26.267-21.518,26.267-21.518s9.467,19.721-15.867,32.267
		C142.479,59.787,134.229,50.79,135.081,47.551z"/>
	<path id="Ear_shadow_R" d="M160.814,27.633c-1.319,0.194-18.4,0.867-23.553,19.133v2.467c0,0,2.952-8.733,7.952-13.066
		C151.093,31.072,158.299,28.568,160.814,27.633z"/>
	<path id="Ear_L" stroke="#000000" stroke-width="2" stroke-miterlimit="10" d="M82.488,65.633
		c-32.8-20.389-19.273-45.2-19.273-45.2S84.356,26.966,94.181,53.9C95.599,57.79,86.004,67.819,82.488,65.633z"/>
	<path id="Ear_inside_L" fill="#321A0F" d="M87.448,50.133c-4.615-26.151-22.418-26.482-23.9-26.7c0,0-10.6,23.3,12.101,34.7
		C78.641,59.636,88.03,53.431,87.448,50.133z"/>
	<path id="Ear_shadow_L" d="M64.462,25.701c1.318,0.194,16.444-0.61,20.552,22.666v2.467c0,0-4.821-13.315-8.4-17.067
		C72.481,29.433,66.977,26.636,64.462,25.701z"/>
	<path id="Eye_L" stroke="#000000" stroke-width="2" stroke-miterlimit="10" d="M87.363,95.1c3.285,0,3.985-1.767,3.985-1.767
		s-1.6-2.8-3.733-2.467"/>
	<path id="Eye_R" stroke="#000000" stroke-width="2" stroke-miterlimit="10" d="M135.081,95.243c-2.899,0-3.333-1.91-3.333-1.91
		s1.066-2.633,3.2-2.3"/>
	<path id="Antler_R" fill="#998675" stroke="#000000" stroke-width="2" stroke-miterlimit="10" d="M186.148,10.633
		c-10.602,2.4-3.602,39.8-16.2,50.6c-8.698,7.455-29,6.667-29,6.667c-8.827,0.257-7.534-4.2-9.2-2.759
		c-0.54,0.467-3.279,7.839,5.066,15.426c2.934,2.667,3.312-3.441,6.134-3.2c78,6.666,81.8-56.134,81.8-56.134
		s-10.732,16.533-19.4,19.4c0,0,1.602-6.595,1.935-7.6c1.915-5.776,7.463-20.802,2.866-21.533c-2.733-0.435-3.147,1.059-3.935,3.934
		c-0.11,0.404-1.532,5.533-1.532,5.533s0.199-7.667-3-9.601C198.482,9.433,186.148,10.633,186.148,10.633z"/>
	<path id="Antler_shadow2_R" d="M146.615,75.933c-0.367-0.167-4.809-1.258-6.518-0.25c-1.949,1.149-2.299,2.626-2.299,2.626
		s-0.009,0.982,0.486,0.633c0.574-0.407,1.955-2.855,3.463-3.034C143.648,75.683,147.723,76.436,146.615,75.933z"/>
	<path id="Antler_shadow_R" d="M185.198,14.233c-1.986,2.748-3.05,11.8-3.937,16.934v2.467c0,0,1.066-5.773,2.545-12.223
		C184.621,17.853,185.083,16.491,185.198,14.233z"/>
	<path id="Antler_outside_R" fill="#C7B299" stroke="#000000" stroke-width="2" stroke-miterlimit="10" d="M222.35,32.967
		c-3.535,3.866-6.27-5.667-6.27-5.667s-0.393,2.435-0.434,2.733c-0.764,5.522-8.011,19.577-13.56,20.639
		c-7.642,1.461-14.741-26.639-14.741-26.639c-0.283,2.464,1.067,31.733-7.199,35.467c-8.193,3.701-28-25.733-28-25.733l0.35,4.604
		c1.6,4.667,20.168,32.21,6.035,39.41c0,0,23.729,0.338,41.193-12.64C217.189,52.164,222.35,32.967,222.35,32.967z"/>
	<path id="Antler_L_1_" fill="#998675" stroke="#000000" stroke-width="2" stroke-miterlimit="10" d="M79.487,76.167
		c2.82-0.241,3.2,5.867,6.134,3.2c8.346-7.587,5.606-14.959,5.066-15.426c-1.667-1.441-0.374,3.016-9.2,2.759
		c0,0-28.391,7.133-34.539-2.533C32.148,40.899,54.11,12.922,43.691,9.9c-10.577-3.066-12.877,0.2-12.877,0.2
		s-0.205-2.737-5.972-3.437c-1.484-0.18-4.062,2.57-4.062,2.57s-0.233-3.366-0.967-3.6c-2.884-0.917-2.111,0.183-4.845,0.618
		C10.371,6.982,0.546,39.099,9.647,46.732c11.67,9.789,29.167,16.767,39.644,28.28C52.361,78.386,79.487,76.167,79.487,76.167z"/>
	<path id="Antler_shadow_L" d="M18.014,7.433c-1.808,1.238-1.785,0.017-2.866,1.133c-3.356,3.464-5.333,13.6-5.333,13.6
		s1.96-4.53,3.362-8.277C15.814,6.833,17.9,9.691,18.014,7.433z"/>
	<path id="Antler_outside_L_1_" fill="#C7B299" stroke="#000000" stroke-width="2" stroke-miterlimit="10" d="M57.197,76.751
		c0,0-10.716-17.784,13.017-38.184c1.267-1.089,4.06-10.465,4.06-10.465s-1.612,0.467-2.427,1.632c-4.2,6-11.367,11.767-16.7,16.367
		c0,0-11.4,12.066-16.733,10.199c-5.333-1.866-11.562-8.471-1.967-34.366c0.53-1.432,1.3-5.367,1.3-5.367
		s-12.261,18.046-15.2,30.984c-0.7,3.083-10.667-3.563-11.235-10.471c-0.265-3.214-0.064-12.847-1.064-13.146
		c-1-0.3-5.042,6.438-3.833,15.3c1.6,11.734,17.333,15.466,31.517,26.179c4.418,3.336,8.696,7.029,11.36,9.601
		C51.706,77.344,57.197,76.751,57.197,76.751"/>
	<g id="Moustache">
		<path id="Moustache_L" fill="#322017" stroke="#000000" stroke-width="2" stroke-miterlimit="10" d="M90.214,158.5
			c7.043,0.164,12.897-4.463,17.399-3.933c3.4,0.399,5.114,5.142-0.2,6.934c-5.928,1.999-19.917,2.783-24.216-0.616
			c-2.542-2.012-5-6.75-0.35-10.102c1.772-1.275,5.9-1.482,6.7,1.384c0.652,2.337-0.866,2.935-0.866,2.935s-1.067-2.866-3-1.334
			C82.723,156.113,87.348,158.434,90.214,158.5z"/>
		<path id="Moustache_R" fill="#322017" stroke="#000000" stroke-width="2" stroke-miterlimit="10" d="M132.02,158.5
			c-7.043,0.164-12.896-4.463-17.398-3.933c-3.4,0.399-5.114,5.142,0.2,6.934c5.927,1.999,19.917,2.783,24.216-0.616
			c2.542-2.012,5-6.75,0.35-10.102c-1.771-1.275-5.9-1.482-6.699,1.384c-0.652,2.337,0.866,2.935,0.866,2.935s1.066-2.866,3-1.334
			C139.512,156.113,134.887,158.434,132.02,158.5z"/>
	</g>
	
		<circle id="Monocle" opacity="0.7" fill="#FFFFFF" stroke="#000000" stroke-width="2" enable-background="new    " cx="133.457" cy="92.766" r="4.443"/>
</g>
</svg>
